/* XPM */
static char *zangband[] = {
/* columns rows colors chars-per-pixel */
"32 32 204 2 ",
"   c #000000",
".  c #010000",
"X  c #000100",
"o  c #010100",
"O  c #010001",
"+  c #010101",
"@  c #000301",
"#  c #000002",
"$  c #020102",
"%  c #020202",
"&  c #030303",
"*  c #050301",
"=  c #000004",
"-  c #000005",
";  c #020304",
":  c #000007",
">  c #040304",
",  c #040404",
"<  c #050505",
"1  c #060505",
"2  c #060506",
"3  c #060606",
"4  c #070707",
"5  c #090502",
"6  c #010902",
"7  c #030904",
"8  c #010C04",
"9  c #00000B",
"0  c #080808",
"q  c #090909",
"w  c #0A0A0A",
"e  c #0B0B0B",
"r  c #0C0C08",
"t  c #0C0C0C",
"y  c #0D0D0D",
"u  c #0E0E0E",
"i  c #0F0F0F",
"p  c #130F02",
"a  c #180E05",
"s  c #110E08",
"d  c #021105",
"f  c #021606",
"g  c #031E08",
"h  c #1B1605",
"j  c #1C1606",
"k  c #1D1706",
"l  c #000013",
"z  c #000014",
"x  c #110F11",
"c  c #101010",
"v  c #111111",
"b  c #121212",
"n  c #131313",
"m  c #141414",
"M  c #151515",
"N  c #161616",
"B  c #171717",
"V  c #191413",
"C  c #181818",
"Z  c #191919",
"A  c #1A1A1A",
"S  c #1B1B1B",
"D  c #1C1C1C",
"F  c #1D1D1D",
"G  c #1E1E1E",
"H  c #1F1F1F",
"J  c #211409",
"K  c #241508",
"L  c #251508",
"P  c #261608",
"I  c #2F1B0A",
"U  c #032C0B",
"Y  c #042D0C",
"T  c #292109",
"R  c #000022",
"E  c #00002F",
"W  c #01003D",
"Q  c #202020",
"!  c #212121",
"~  c #222222",
"^  c #232323",
"/  c #242424",
"(  c #252525",
")  c #262626",
"_  c #272727",
"`  c #282826",
"'  c #282828",
"]  c #292929",
"[  c #2A2A2A",
"{  c #2B2B2B",
"}  c #2C2C2C",
"|  c #2F2F2F",
" . c #303030",
".. c #313131",
"X. c #323232",
"o. c #333333",
"O. c #343434",
"+. c #353534",
"@. c #353535",
"#. c #363636",
"$. c #373737",
"%. c #393939",
"&. c #3A3A3A",
"*. c #3B3B3B",
"=. c #3C3C3C",
"-. c #3D3D3D",
";. c #3E3E3E",
":. c #3F3F3F",
">. c #46290F",
",. c #583313",
"<. c #593414",
"1. c #5E3715",
"2. c #603815",
"3. c #074814",
"4. c #074E15",
"5. c #075016",
"6. c #0C7B22",
"7. c #0C7D22",
"8. c #6D5616",
"9. c #000041",
"0. c #010042",
"q. c #010063",
"w. c #010069",
"e. c #01006F",
"r. c #000076",
"t. c #00007F",
"y. c #404040",
"u. c #414141",
"i. c #424242",
"p. c #434343",
"a. c #444444",
"s. c #454545",
"d. c #464646",
"f. c #484848",
"g. c #494949",
"h. c #4A4A4A",
"j. c #4B4B4B",
"k. c #4C4C4C",
"l. c #4D4D4D",
"z. c #4E4E4E",
"x. c #4F4F4F",
"c. c #515151",
"v. c #525252",
"b. c #535353",
"n. c #545454",
"m. c #555555",
"M. c #565656",
"N. c #575757",
"B. c #585858",
"V. c #595959",
"C. c #5A5A5A",
"Z. c #5B5B5B",
"A. c #5D5D5D",
"S. c #5E5E5E",
"D. c #5F5F5F",
"F. c #606060",
"G. c #616161",
"H. c #626262",
"J. c #636363",
"K. c #646464",
"L. c #656565",
"P. c #666666",
"I. c #676767",
"U. c #686868",
"Y. c #696969",
"T. c #6A6A6A",
"R. c #6B6B6B",
"E. c #6C6C6C",
"W. c #6D6D6D",
"Q. c #6E6E6E",
"!. c #6F6F6F",
"~. c #707070",
"^. c #717171",
"/. c #727272",
"(. c #737373",
"). c #747474",
"_. c #757575",
"`. c #767676",
"'. c #777777",
"]. c #787878",
"[. c #797979",
"{. c #7A7A7A",
"}. c #7B7B7B",
"|. c #7C7C7C",
" X c #7D7D7D",
".X c #7E7E7E",
"XX c #7F7F7F",
"oX c #81671A",
"OX c #856A1C",
"+X c #987920",
"@X c #0E982A",
"#X c #0F9D2B",
"$X c #0F9F2C",
"%X c #13C436",
"&X c #0200B0",
"*X c #0200CF",
"=X c #808080",
"-X c #818181",
";X c #828282",
":X c #838383",
">X c #868686",
",X c #919191",
"<X c #999999",
"1X c None",
/* pixels */
"1X1X1X                                                    1X1X1X",
"1X1X< ] ] 0 _ ] 0 _ ] 0 _ ] 0 _ ] 0 ! } i ! ] i F } n C } M 1X1X",
"1X  &.|.R.i.{.Q.=.{.(.i.'.(.=.'.'.=.'.'.i.Q.{.=.Q.{.i.R.{.#.  1X",
"  < m.=XZ.m.|.D.v.|.G.g.|.R.g.|.Q.d.|.Q.i.|.(.i.{.'.i.'.{.!   1X",
"  < m.R.#.v.R.&.l.Q.=.g.R.i.d.Q.d.i.Q.g.=.R.l.&.R.v.#.R.m.i     ",
"    n n < i n < i n < i n < i M 0 0 M 0 0 n i 0 n i < M i       ",
"                                                                ",
"          * K a               } =.  ] i.              i M 0     ",
"    _ M   5 <.2.            0 D.i.< Z.g.            0 m.Q.o.    ",
"    ] Z.k.  K 2.            < {.P.  Q.(.            F {.{.]     ",
"    #.v.#.J >.2.  o.n   } n 0 (.>XM '.,Xn _ C   _ F o.|.Q.M     ",
"    M <   I <.K   o.i   o.n C P.R.&.P.(._ _ F   _ F i ] F       ",
"                                                                ",
"      < <                                     9 z               ",
"    M l.d.0                 ! R.G.n           W e.l : h T       ",
"    d.=XR.0                 P.{.<X#.          0.&Xr.V oX+XT     ",
"  0 G.=Xv.< M <   M 0   n n (.=X=X#.i 0   n 0 0.*Xt.s 8.OXk     ",
"  < =.l.C < g.n < g.M   d.C m.{.'.F =._   &.` E q.w.R p k       ",
"    < <     <     <     <   i l.l.i   <   < <   : :             ",
"                  6 @                                           ",
"    0 } ] >     f 6.3.                                F o.M     ",
"    =.|.R.i     4.%X5.                              n Q.|.#.    ",
"  < m.=Xm.< <   g @X#X8 >     <     <     <         _ {.{.!     ",
"  < m.R.o.< g.x Y $X7.7 d.C   i.F   =._   &.]   #.} ] R.m.0     ",
"    i n     C <   Y d   M 0   M 0   M 0   n i   n i < M i       ",
"                                                                ",
"      M m   M M < M M < M M   n M < i M < n M 0 i M 0 i M 0     ",
"    } Q.G.o.R.P.} R.P.} P.R.o.G.R.o.D.R.o.D.R.o.Z.Q.#.m.Q.o.    ",
"    l.=XD.l.|.P.g.|.R.g.|.R.d.|.Q.i.{.(.i.{.(.i.{.'.=.'.{._   1X",
"1X0 G.{.g.D.{.l.Z.{.v.v.|.m.v.{.Z.l.{.D.g.{.G.d.{.P.i.{.Q.n   1X",
"1X1X_ _ 0 ! ] 0 F ] i C ] i C ] n M ] n M ] M n ] M n ] C   1X1X",
"1X1X1X                                                    1X1X1X"
};
